<?xml version="1.0" encoding="UTF-8" standalone="no"?>
<!-- Created with Inkscape (http://www.inkscape.org/) -->

<svg
   xmlns:dc="http://purl.org/dc/elements/1.1/"
   xmlns:cc="http://creativecommons.org/ns#"
   xmlns:rdf="http://www.w3.org/1999/02/22-rdf-syntax-ns#"
   xmlns:svg="http://www.w3.org/2000/svg"
   xmlns="http://www.w3.org/2000/svg"
   xmlns:sodipodi="http://sodipodi.sourceforge.net/DTD/sodipodi-0.dtd"
   xmlns:inkscape="http://www.inkscape.org/namespaces/inkscape"
   width="400"
   height="200"
   viewBox="0 0 105.83334 52.916667"
   version="1.1"
   id="svg8"
   inkscape:version="0.92.4 (5da689c313, 2019-01-14)"
   sodipodi:docname="logo2.svg">
  <defs
     id="defs2">
    <inkscape:perspective
       sodipodi:type="inkscape:persp3d"
       inkscape:vp_x="0 : 79.375 : 1"
       inkscape:vp_y="0 : 1000 : 0"
       inkscape:vp_z="211.66668 : 79.375 : 1"
       inkscape:persp3d-origin="105.83335 : 52.916667 : 1"
       id="perspective48" />
  </defs>
  <sodipodi:namedview
     id="base"
     pagecolor="#ffffff"
     bordercolor="#666666"
     borderopacity="1.0"
     inkscape:pageopacity="0.0"
     inkscape:pageshadow="2"
     inkscape:zoom="0.98994949"
     inkscape:cx="17.251724"
     inkscape:cy="271.64749"
     inkscape:document-units="mm"
     inkscape:current-layer="g5068"
     showgrid="false"
     units="px"
     inkscape:window-width="1526"
     inkscape:window-height="1008"
     inkscape:window-x="-7"
     inkscape:window-y="0"
     inkscape:window-maximized="0"
     inkscape:pagecheckerboard="true">
    <inkscape:grid
       type="xygrid"
       id="grid10" />
  </sodipodi:namedview>
  <metadata
     id="metadata5">
    <rdf:RDF>
      <cc:Work
         rdf:about="">
        <dc:format>image/svg+xml</dc:format>
        <dc:type
           rdf:resource="http://purl.org/dc/dcmitype/StillImage" />
        <dc:title></dc:title>
      </cc:Work>
    </rdf:RDF>
  </metadata>
  <g
     inkscape:label="Layer 1"
     inkscape:groupmode="layer"
     id="layer1"
     transform="translate(0,-244.08331)">
    <flowRoot
       xml:space="preserve"
       id="flowRoot3719"
       style="font-style:normal;font-weight:normal;font-size:40px;line-height:1.25;font-family:sans-serif;letter-spacing:0px;word-spacing:0px;fill:#000000;fill-opacity:1;stroke:none"><flowRegion
         id="flowRegion3721"><rect
           id="rect3723"
           width="70"
           height="50"
           x="460"
           y="220" /></flowRegion><flowPara
         id="flowPara3725" /></flowRoot>    <circle
       id="path25"
       cx="35.012306"
       cy="201.85204"
       style="stroke-width:0.26458332"
       r="0" />
    <g
       id="g5068">
      <path
         inkscape:connector-curvature="0"
         id="path4928"
         style="font-style:normal;font-variant:normal;font-weight:normal;font-stretch:normal;font-size:13.12788677px;line-height:1.25;font-family:'Roboto Black';-inkscape-font-specification:'Roboto Black, ';letter-spacing:0px;word-spacing:0px;fill:#ffffff;fill-opacity:1;fill-rule:evenodd;stroke:none;stroke-width:0.32819715"
         d="M 38.801411,261.41733 H 40.9983 v 6.53966 q 0,0.90992 -0.407994,1.62345 -0.401717,0.71354 -1.129828,1.10632 -0.721835,0.39277 -1.613144,0.39277 -1.493883,0 -2.322424,-0.78555 -0.828541,-0.78554 -0.828541,-2.22571 h 2.209442 q 0,0.65462 0.213412,0.9492 0.219689,0.29458 0.728111,0.29458 0.458208,0 0.703004,-0.3535 0.251073,-0.36003 0.251073,-1.00156 z" />
      <path
         inkscape:connector-curvature="0"
         id="path4930"
         style="font-style:normal;font-variant:normal;font-weight:normal;font-stretch:normal;font-size:13.12788677px;line-height:1.25;font-family:'Roboto Black';-inkscape-font-specification:'Roboto Black, ';letter-spacing:0px;word-spacing:0px;fill:#ffffff;fill-opacity:1;fill-rule:evenodd;stroke:none;stroke-width:0.32819715"
         d="m 45.580379,271.07953 q -1.562928,0 -2.529558,-0.96884 -0.966632,-0.97538 -0.966632,-2.53338 v -0.1833 q 0,-1.08667 0.382886,-1.91804 0.389163,-0.83136 1.129828,-1.28305 0.740666,-0.45824 1.757511,-0.45824 1.431116,0 2.259656,0.92957 0.828541,0.92301 0.828541,2.5792 V 268.101 H 44.23714 q 0.112982,0.59571 0.495869,0.93611 0.382886,0.3404 0.991738,0.3404 1.004291,0 1.569205,-0.73317 l 0.966631,1.19141 q -0.39544,0.56952 -1.123552,0.90992 -0.721834,0.33386 -1.556652,0.33386 z M 45.34186,265.4367 q -0.92897,0 -1.10472,1.28305 h 2.134119 v -0.17019 q 0.01255,-0.53025 -0.257349,-0.81829 -0.269904,-0.29457 -0.77205,-0.29457 z" />
      <path
         inkscape:connector-curvature="0"
         id="path4932"
         style="font-style:normal;font-variant:normal;font-weight:normal;font-stretch:normal;font-size:13.12788677px;line-height:1.25;font-family:'Roboto Black';-inkscape-font-specification:'Roboto Black, ';letter-spacing:0px;word-spacing:0px;fill:#ffffff;fill-opacity:1;fill-rule:evenodd;stroke:none;stroke-width:0.32819715"
         d="m 49.767021,270.9486 v -5.55118 h -0.985462 v -1.53182 h 0.985462 v -0.56296 q 0,-1.21105 0.684173,-1.87877 0.684174,-0.66771 1.920708,-0.66771 0.451931,0 0.991737,0.13747 l 0.0063,1.62345 q -0.194582,-0.0589 -0.520977,-0.0589 -0.960353,0 -0.960353,0.8641 v 0.54333 h 1.324409 v 1.53182 h -1.324409 v 5.55118 z" />
      <path
         inkscape:connector-curvature="0"
         id="path4934"
         style="font-style:normal;font-variant:normal;font-weight:normal;font-stretch:normal;font-size:13.12788677px;line-height:1.25;font-family:'Roboto Black';-inkscape-font-specification:'Roboto Black, ';letter-spacing:0px;word-spacing:0px;fill:#ffffff;fill-opacity:1;fill-rule:evenodd;stroke:none;stroke-width:0.32819715"
         d="m 54.436977,270.9486 v -5.55118 h -0.985462 v -1.53182 h 0.985462 v -0.56296 q 0,-1.21105 0.684173,-1.87877 0.684174,-0.66771 1.920708,-0.66771 0.451931,0 0.991738,0.13747 l 0.0063,1.62345 q -0.194581,-0.0589 -0.520976,-0.0589 -0.960354,0 -0.960354,0.8641 v 0.54333 h 1.324409 v 1.53182 h -1.324409 v 5.55118 z" />
      <path
         inkscape:connector-curvature="0"
         id="path4936"
         style="font-style:normal;font-variant:normal;font-weight:normal;font-stretch:normal;font-size:13.12788677px;line-height:1.25;font-family:'Roboto Black';-inkscape-font-specification:'Roboto Black, ';letter-spacing:0px;word-spacing:0px;fill:#ffffff;fill-opacity:1;fill-rule:evenodd;stroke:none;stroke-width:0.32819715"
         d="m 61.950334,270.9486 v -9.53127 h 3.282777 q 1.763788,0 2.680203,0.67426 0.922693,0.67426 0.922693,1.95731 0,0.73972 -0.326394,1.26342 -0.326395,0.52369 -0.960354,0.77245 0.715558,0.19639 1.098444,0.73318 0.382886,0.53679 0.382886,1.30924 0,1.40089 -0.853647,2.10788 -0.847372,0.70044 -2.517007,0.71353 z m 2.203164,-4.0521 v 2.28463 h 1.443669 q 0.596298,0 0.916416,-0.28149 0.320118,-0.28803 0.320118,-0.80518 0,-1.19141 -1.136105,-1.19796 z m 0,-1.50562 h 1.148658 q 0.721835,-0.006 1.029399,-0.27495 0.307565,-0.26839 0.307565,-0.79209 0,-0.60225 -0.332672,-0.8641 -0.332672,-0.2684 -1.073337,-0.2684 h -1.079613 z" />
      <path
         inkscape:connector-curvature="0"
         id="path4938"
         style="font-style:normal;font-variant:normal;font-weight:normal;font-stretch:normal;font-size:13.12788677px;line-height:1.25;font-family:'Roboto Black';-inkscape-font-specification:'Roboto Black, ';letter-spacing:0px;word-spacing:0px;fill:#ffffff;fill-opacity:1;fill-rule:evenodd;stroke:none;stroke-width:0.32819715"
         d="M 72.36986,270.9486 H 70.248294 V 260.89363 H 72.36986 Z" />
      <path
         inkscape:connector-curvature="0"
         id="path4940"
         style="font-style:normal;font-variant:normal;font-weight:normal;font-stretch:normal;font-size:13.12788677px;line-height:1.25;font-family:'Roboto Black';-inkscape-font-specification:'Roboto Black, ';letter-spacing:0px;word-spacing:0px;fill:#ffffff;fill-opacity:1;fill-rule:evenodd;stroke:none;stroke-width:0.32819715"
         d="m 73.41181,267.34165 q 0,-1.06049 0.395441,-1.88531 0.395439,-0.83137 1.136105,-1.27652 0.740665,-0.44514 1.738679,-0.44514 1.525268,0 2.404024,0.98848 0.878755,0.98193 0.878755,2.6774 v 0.0785 q 0,1.6562 -0.885033,2.63158 -0.878755,0.96884 -2.385192,0.96884 -1.449946,0 -2.328701,-0.90338 -0.878755,-0.90992 -0.947801,-2.46138 z m 2.11529,0.13746 q 0,0.98194 0.295011,1.44017 0.29501,0.45823 0.872478,0.45823 1.129828,0 1.154936,-1.8133 v -0.22256 q 0,-1.90495 -1.16749,-1.90495 -1.060783,0 -1.148659,1.64309 z" />
      <path
         inkscape:connector-curvature="0"
         id="path4942"
         style="font-style:normal;font-variant:normal;font-weight:normal;font-stretch:normal;font-size:13.12788677px;line-height:1.25;font-family:'Roboto Black';-inkscape-font-specification:'Roboto Black, ';letter-spacing:0px;word-spacing:0px;fill:#ffffff;fill-opacity:1;fill-rule:evenodd;stroke:none;stroke-width:0.32819715"
         d="m 80.642712,267.34165 q 0,-1.06049 0.395439,-1.88531 0.395441,-0.83137 1.136106,-1.27652 0.740664,-0.44514 1.738679,-0.44514 1.525268,0 2.404023,0.98848 0.878755,0.98193 0.878755,2.6774 v 0.0785 q 0,1.6562 -0.885032,2.63158 -0.878755,0.96884 -2.385192,0.96884 -1.449946,0 -2.328702,-0.90338 -0.878755,-0.90992 -0.947799,-2.46138 z m 2.115289,0.13746 q 0,0.98194 0.295011,1.44017 0.29501,0.45823 0.872478,0.45823 1.129828,0 1.154935,-1.8133 v -0.22256 q 0,-1.90495 -1.167489,-1.90495 -1.060783,0 -1.148658,1.64309 z" />
      <path
         inkscape:connector-curvature="0"
         id="path4944"
         style="font-style:normal;font-variant:normal;font-weight:normal;font-stretch:normal;font-size:13.12788677px;line-height:1.25;font-family:'Roboto Black';-inkscape-font-specification:'Roboto Black, ';letter-spacing:0px;word-spacing:0px;fill:#ffffff;fill-opacity:1;fill-rule:evenodd;stroke:none;stroke-width:0.32819715"
         d="m 90.139542,263.8656 0.06904,0.83138 q 0.721835,-0.9623 1.939538,-0.9623 1.286749,0 1.73868,1.06704 0.69045,-1.06704 1.996029,-1.06704 2.065079,0 2.12157,2.60539 v 4.60853 h -2.12157 v -4.47106 q 0,-0.54333 -0.17575,-0.79209 -0.175751,-0.24875 -0.640237,-0.24875 -0.627682,0 -0.935246,0.58261 l 0.0063,0.0916 v 4.83764 H 92.01633 v -4.45797 q 0,-0.55642 -0.169474,-0.80518 -0.169474,-0.24875 -0.646513,-0.24875 -0.608852,0 -0.92897,0.58261 v 4.92929 h -2.115289 v -7.083 z" />
      <path
         inkscape:connector-curvature="0"
         id="path4947"
         style="font-style:normal;font-variant:normal;font-weight:normal;font-stretch:normal;font-size:6.3499999px;line-height:1.25;font-family:'Roboto Thin';-inkscape-font-specification:'Roboto Thin, ';letter-spacing:0px;word-spacing:0px;fill:#ffffff;fill-opacity:1;stroke:none;stroke-width:0.26458332"
         d="m 37.307426,277.96 h -2.313037 v 2.22002 h -0.167431 v -4.51445 h 2.796728 v 0.16743 h -2.629297 v 1.95337 h 2.313037 z" />
      <path
         inkscape:connector-curvature="0"
         id="path4949"
         style="font-style:normal;font-variant:normal;font-weight:normal;font-stretch:normal;font-size:6.3499999px;line-height:1.25;font-family:'Roboto Thin';-inkscape-font-specification:'Roboto Thin, ';letter-spacing:0px;word-spacing:0px;fill:#ffffff;fill-opacity:1;stroke:none;stroke-width:0.26458332"
         d="m 40.559941,280.18002 v -0.5426 q -0.148828,0.27905 -0.434082,0.44338 -0.285254,0.16123 -0.722437,0.16123 -0.548803,0 -0.824755,-0.31936 -0.272852,-0.32246 -0.279053,-0.93637 v -2.16111 h 0.167431 v 2.16731 q 0.0062,0.5333 0.241846,0.80925 0.235645,0.27285 0.68833,0.27285 0.480591,0 0.781348,-0.22634 0.300757,-0.22634 0.381372,-0.66352 v -2.35955 h 0.170532 v 3.35483 z" />
      <path
         inkscape:connector-curvature="0"
         id="path4951"
         style="font-style:normal;font-variant:normal;font-weight:normal;font-stretch:normal;font-size:6.3499999px;line-height:1.25;font-family:'Roboto Thin';-inkscape-font-specification:'Roboto Thin, ';letter-spacing:0px;word-spacing:0px;fill:#ffffff;fill-opacity:1;stroke:none;stroke-width:0.26458332"
         d="M 41.992411,280.18002 H 41.82498 v -4.7625 h 0.167431 z" />
      <path
         inkscape:connector-curvature="0"
         id="path4953"
         style="font-style:normal;font-variant:normal;font-weight:normal;font-stretch:normal;font-size:6.3499999px;line-height:1.25;font-family:'Roboto Thin';-inkscape-font-specification:'Roboto Thin, ';letter-spacing:0px;word-spacing:0px;fill:#ffffff;fill-opacity:1;stroke:none;stroke-width:0.26458332"
         d="m 43.30706,280.18002 h -0.167432 v -4.7625 h 0.167432 z" />
      <path
         inkscape:connector-curvature="0"
         id="path4955"
         style="font-style:normal;font-variant:normal;font-weight:normal;font-stretch:normal;font-size:6.3499999px;line-height:1.25;font-family:'Roboto Thin';-inkscape-font-specification:'Roboto Thin, ';letter-spacing:0px;word-spacing:0px;fill:#ffffff;fill-opacity:1;stroke:none;stroke-width:0.26458332"
         d="m 48.729985,279.09792 q 0,-0.28836 -0.136426,-0.48679 -0.133325,-0.20154 -0.42478,-0.35347 -0.288355,-0.15503 -0.874366,-0.31626 -0.58601,-0.16123 -0.880566,-0.32556 -0.291455,-0.16433 -0.427881,-0.38137 -0.136426,-0.21704 -0.136426,-0.5271 0,-0.493 0.415479,-0.79685 0.415478,-0.30696 1.082104,-0.30696 0.434082,0 0.778247,0.17053 0.347266,0.16743 0.536402,0.47439 0.189135,0.30386 0.189135,0.68833 h -0.167431 q 0,-0.5054 -0.37207,-0.83406 -0.372071,-0.33176 -0.964283,-0.33176 -0.595312,0 -0.964282,0.26665 -0.365869,0.26355 -0.365869,0.66353 0,0.40617 0.31936,0.65422 0.319361,0.24805 1.0542,0.44028 0.734838,0.18914 1.075903,0.44029 0.434082,0.31936 0.434082,0.85576 0,0.34106 -0.192236,0.60461 -0.192237,0.26045 -0.545704,0.40308 -0.353466,0.14262 -0.79375,0.14262 -0.489892,0 -0.880566,-0.16123 -0.390674,-0.16433 -0.589111,-0.46508 -0.195337,-0.30076 -0.195337,-0.71004 h 0.167431 q 0,0.55501 0.415479,0.86197 0.415478,0.30695 1.082104,0.30695 0.592212,0 0.976685,-0.26975 0.384473,-0.27285 0.384473,-0.70693 z" />
      <path
         inkscape:connector-curvature="0"
         id="path4957"
         style="font-style:normal;font-variant:normal;font-weight:normal;font-stretch:normal;font-size:6.3499999px;line-height:1.25;font-family:'Roboto Thin';-inkscape-font-specification:'Roboto Thin, ';letter-spacing:0px;word-spacing:0px;fill:#ffffff;fill-opacity:1;stroke:none;stroke-width:0.26458332"
         d="m 50.072538,275.91982 v 0.90537 h 0.762744 v 0.17053 h -0.762744 v 2.38125 q 0,0.35657 0.114722,0.5271 0.117822,0.17053 0.390673,0.17053 0.136426,0 0.331763,-0.0279 l 0.02791,0.15813 q -0.102319,0.0372 -0.350366,0.0372 -0.365869,0 -0.523999,-0.20153 -0.15813,-0.20464 -0.16123,-0.64182 v -2.40296 h -0.620117 v -0.17053 h 0.620117 v -0.90537 z" />
      <path
         inkscape:connector-curvature="0"
         id="path4959"
         style="font-style:normal;font-variant:normal;font-weight:normal;font-stretch:normal;font-size:6.3499999px;line-height:1.25;font-family:'Roboto Thin';-inkscape-font-specification:'Roboto Thin, ';letter-spacing:0px;word-spacing:0px;fill:#ffffff;fill-opacity:1;stroke:none;stroke-width:0.26458332"
         d="m 53.873857,280.18002 q -0.06201,-0.21394 -0.06201,-0.61391 -0.198438,0.32246 -0.542603,0.49919 -0.344165,0.17673 -0.778247,0.17673 -0.465087,0 -0.750341,-0.25114 -0.282154,-0.25425 -0.282154,-0.66043 0,-0.46198 0.415479,-0.73794 0.418579,-0.27905 1.11001,-0.28525 h 0.827856 v -0.48989 q 0,-0.42168 -0.26665,-0.65423 -0.26355,-0.23254 -0.756543,-0.23254 -0.458887,0 -0.765845,0.23564 -0.306958,0.23565 -0.306958,0.58291 l -0.167432,-0.006 q 0,-0.40927 0.359668,-0.69453 0.359668,-0.28525 0.880567,-0.28525 0.542602,0 0.861963,0.27285 0.31936,0.26975 0.328662,0.76274 v 1.60301 q 0,0.5519 0.08682,0.75034 v 0.0279 z m -1.382862,-0.10232 q 0.471289,0 0.809253,-0.21084 0.341065,-0.21084 0.511597,-0.59221 v -0.79685 h -0.775146 q -0.719336,0 -1.100708,0.28526 -0.310059,0.23254 -0.310059,0.57981 0,0.30695 0.244946,0.52089 0.244946,0.21394 0.620117,0.21394 z" />
      <path
         inkscape:connector-curvature="0"
         id="path4961"
         style="font-style:normal;font-variant:normal;font-weight:normal;font-stretch:normal;font-size:6.3499999px;line-height:1.25;font-family:'Roboto Thin';-inkscape-font-specification:'Roboto Thin, ';letter-spacing:0px;word-spacing:0px;fill:#ffffff;fill-opacity:1;stroke:none;stroke-width:0.26458332"
         d="m 56.193095,280.0746 q 0.455786,0 0.750342,-0.24184 0.297656,-0.24185 0.325561,-0.66973 h 0.167432 q -0.02481,0.48679 -0.375171,0.78445 -0.350366,0.29455 -0.868164,0.29455 -0.629419,0 -1.001489,-0.45578 -0.36897,-0.45579 -0.36897,-1.23713 v -0.11163 q 0,-0.76274 0.36897,-1.21853 0.37207,-0.45578 0.995288,-0.45578 0.533301,0 0.880566,0.31936 0.347266,0.31936 0.36897,0.84956 h -0.167432 q -0.0217,-0.45269 -0.31936,-0.72554 -0.294556,-0.27595 -0.762744,-0.27595 -0.561206,0 -0.880567,0.40618 -0.316259,0.40307 -0.316259,1.12241 v 0.10852 q 0,0.70383 0.31936,1.10691 0.322461,0.39997 0.883667,0.39997 z" />
      <path
         inkscape:connector-curvature="0"
         id="path4963"
         style="font-style:normal;font-variant:normal;font-weight:normal;font-stretch:normal;font-size:6.3499999px;line-height:1.25;font-family:'Roboto Thin';-inkscape-font-specification:'Roboto Thin, ';letter-spacing:0px;word-spacing:0px;fill:#ffffff;fill-opacity:1;stroke:none;stroke-width:0.26458332"
         d="m 58.940214,278.36618 -0.0062,0.006 -0.486792,0.41858 v 1.38906 H 58.27979 v -4.7625 h 0.167432 v 3.19051 l 0.393774,-0.37207 1.525489,-1.41077 h 0.238745 l -1.540991,1.42937 1.637109,1.92546 h -0.217041 z" />
      <path
         inkscape:connector-curvature="0"
         id="path4965"
         style="font-style:normal;font-variant:normal;font-weight:normal;font-stretch:normal;font-size:6.3499999px;line-height:1.25;font-family:'Roboto Thin';-inkscape-font-specification:'Roboto Thin, ';letter-spacing:0px;word-spacing:0px;fill:#ffffff;fill-opacity:1;stroke:none;stroke-width:0.26458332"
         d="m 62.893461,280.18002 v -4.51445 h 1.249536 q 0.523999,0 0.94878,0.24805 0.42478,0.24804 0.666626,0.69763 0.241845,0.44648 0.248046,1.00149 v 0.58601 q 0,0.56431 -0.238745,1.01699 -0.235644,0.45269 -0.660424,0.70693 -0.424781,0.25425 -0.94878,0.25735 z m 0.167432,-4.34702 v 4.17959 h 1.082104 q 0.47439,0 0.861963,-0.22944 0.390674,-0.23255 0.610816,-0.64492 0.220141,-0.41548 0.223242,-0.92088 v -0.57981 q 0,-0.50539 -0.217041,-0.91777 -0.213941,-0.41238 -0.601514,-0.64492 -0.384473,-0.23565 -0.852661,-0.24185 z" />
      <path
         inkscape:connector-curvature="0"
         id="path4967"
         style="font-style:normal;font-variant:normal;font-weight:normal;font-stretch:normal;font-size:6.3499999px;line-height:1.25;font-family:'Roboto Thin';-inkscape-font-specification:'Roboto Thin, ';letter-spacing:0px;word-spacing:0px;fill:#ffffff;fill-opacity:1;stroke:none;stroke-width:0.26458332"
         d="m 68.167556,280.24203 q -0.406177,0 -0.747241,-0.21704 -0.337964,-0.22014 -0.5302,-0.60151 -0.192237,-0.38137 -0.192237,-0.84646 v -0.13953 q 0,-0.46508 0.186035,-0.85266 0.186036,-0.38757 0.511597,-0.60461 0.325562,-0.21704 0.710034,-0.21704 0.561206,0 0.917774,0.39997 0.356567,0.39998 0.356567,1.0511 v 0.17674 H 66.86531 v 0.18293 q 0,0.40928 0.170532,0.75964 0.173633,0.34727 0.47439,0.54571 0.303857,0.19843 0.657324,0.19843 0.337964,0 0.573608,-0.11162 0.238745,-0.11472 0.42168,-0.35036 l 0.117822,0.0837 q -0.375171,0.5426 -1.11311,0.5426 z m -0.06201,-3.31142 q -0.489892,0 -0.830957,0.36587 -0.341064,0.36277 -0.399975,0.92707 h 2.337841 v -0.0403 q 0,-0.34107 -0.145727,-0.63252 -0.142627,-0.29456 -0.396875,-0.45579 -0.251148,-0.16433 -0.564307,-0.16433 z" />
      <path
         inkscape:connector-curvature="0"
         id="path4969"
         style="font-style:normal;font-variant:normal;font-weight:normal;font-stretch:normal;font-size:6.3499999px;line-height:1.25;font-family:'Roboto Thin';-inkscape-font-specification:'Roboto Thin, ';letter-spacing:0px;word-spacing:0px;fill:#ffffff;fill-opacity:1;stroke:none;stroke-width:0.26458332"
         d="m 71.110012,279.91337 1.206128,-3.08818 h 0.179834 l -1.305347,3.35483 h -0.164331 l -1.302246,-3.35483 h 0.179834 z" />
      <path
         inkscape:connector-curvature="0"
         id="path4595"
         d="m 74.083333,278.47914 c 23.812499,0 24.190469,0 24.190469,0"
         style="fill:#ffffff;stroke:#ffffff;stroke-width:0.26458332px;stroke-linecap:butt;stroke-linejoin:miter;stroke-opacity:1" />
      <path
         inkscape:connector-curvature="0"
         id="path25-9"
         d="m 13.29067,283.40326 a 2.9399648,2.9399648 0 0 1 -2.939965,2.93996 2.9399648,2.9399648 0 0 1 -2.9399646,-2.93996 2.9399648,2.9399648 0 0 1 2.9399646,-2.93997 2.9399648,2.9399648 0 0 1 2.939965,2.93997 z"
         style="stroke-width:0.26458332;fill:#ffffff" />
      <path
         inkscape:connector-curvature="0"
         id="path25-99"
         d="m 27.522774,278.12469 a 2.9399648,2.9399648 0 0 1 -2.939965,2.93997 2.9399648,2.9399648 0 0 1 -2.939964,-2.93997 2.9399648,2.9399648 0 0 1 2.939964,-2.93996 2.9399648,2.9399648 0 0 1 2.939965,2.93996 z"
         style="stroke-width:0.26458332;fill:#ffffff" />
      <path
         inkscape:connector-curvature="0"
         id="path64"
         d="m 10.279189,268.31859 c 0,9.43473 10.933403,9.74577 10.933403,9.74577"
         style="fill:none;fill-opacity:1;fill-rule:evenodd;stroke:#ffffff;stroke-width:1;stroke-linecap:butt;stroke-linejoin:miter;stroke-miterlimit:4;stroke-dasharray:none;stroke-opacity:1" />
      <path
         inkscape:connector-curvature="0"
         id="path75"
         d="m 10.249711,262.48942 c 0,17.63978 0,17.63978 0,17.63978"
         style="fill:#000000;stroke:#ffffff;stroke-width:1;stroke-linecap:butt;stroke-linejoin:miter;stroke-miterlimit:4;stroke-dasharray:none;stroke-opacity:1" />
      <path
         inkscape:connector-curvature="0"
         id="path25-99-2"
         d="m 13.254175,259.60385 a 2.9399648,2.9399648 0 0 1 -2.939965,2.93997 2.9399648,2.9399648 0 0 1 -2.9399648,-2.93997 2.9399648,2.9399648 0 0 1 2.9399648,-2.93996 2.9399648,2.9399648 0 0 1 2.939965,2.93996 z"
         style="stroke-width:0.26458332;fill:#ffffff" />
    </g>
  </g>
</svg>
