<?xml version="1.0" encoding="UTF-8" standalone="no"?>
<!-- Created with Inkscape (http://www.inkscape.org/) -->

<svg
   xmlns:dc="http://purl.org/dc/elements/1.1/"
   xmlns:cc="http://creativecommons.org/ns#"
   xmlns:rdf="http://www.w3.org/1999/02/22-rdf-syntax-ns#"
   xmlns:svg="http://www.w3.org/2000/svg"
   xmlns="http://www.w3.org/2000/svg"
   xmlns:sodipodi="http://sodipodi.sourceforge.net/DTD/sodipodi-0.dtd"
   xmlns:inkscape="http://www.inkscape.org/namespaces/inkscape"
   width="210mm"
   height="297mm"
   viewBox="0 0 210 297"
   version="1.1">



  <g
     fill="blue">
    <path
       fill="orange"
       d="M 73.470703 250.40625 L 87.246094 336.30859 L 87.251953 336.30664 A 7.5007506 7.5007506 0 0 0 89.345703 340.42188 L 125.79492 376.87109 L 75.667969 426.99805 A 7.5007505 7.5007505 0 0 0 73.726562 434.24219 L 82.677734 467.64258 A 7.5007505 7.5007505 0 0 0 82.740234 467.83398 A 7.5007505 7.5007505 0 0 0 82.857422 468.19531 A 7.5007505 7.5007505 0 0 0 82.982422 468.52344 A 7.5007505 7.5007505 0 0 0 83.144531 468.89648 A 7.5007505 7.5007505 0 0 0 83.300781 469.20703 A 7.5007505 7.5007505 0 0 0 83.494141 469.55273 A 7.5007505 7.5007505 0 0 0 83.683594 469.84961 A 7.5007505 7.5007505 0 0 0 83.914062 470.17969 A 7.5007505 7.5007505 0 0 0 84.130859 470.45508 A 7.5007505 7.5007505 0 0 0 84.40625 470.77539 A 7.5007505 7.5007505 0 0 0 84.564453 470.94531 A 7.5007505 7.5007505 0 0 0 84.621094 471.00391 L 105.79688 492.18164 A 7.5007505 7.5007505 0 0 0 105.86719 492.24414 A 7.5007505 7.5007505 0 0 0 106.19336 492.53711 A 7.5007505 7.5007505 0 0 0 106.42383 492.73633 A 7.5007505 7.5007505 0 0 0 106.76562 492.99023 A 7.5007505 7.5007505 0 0 0 107.05078 493.18555 A 7.5007505 7.5007505 0 0 0 107.36914 493.375 A 7.5007505 7.5007505 0 0 0 107.70312 493.56055 A 7.5007505 7.5007505 0 0 0 108.06055 493.72656 A 7.5007505 7.5007505 0 0 0 108.36914 493.85938 A 7.5007505 7.5007505 0 0 0 108.80273 494.01172 A 7.5007505 7.5007505 0 0 0 109.06055 494.0918 A 7.5007505 7.5007505 0 0 0 109.1582 494.12305 L 142.55859 503.07422 A 7.5007505 7.5007505 0 0 0 149.80469 501.13281 L 199.92969 451.00781 L 250.05664 501.13281 A 7.5007506 7.5007506 0 0 0 257.30273 503.07422 L 290.70117 494.12305 A 7.5007506 7.5007506 0 0 0 290.80078 494.0918 A 7.5007506 7.5007506 0 0 0 291.05859 494.01172 A 7.5007506 7.5007506 0 0 0 291.49219 493.85938 A 7.5007506 7.5007506 0 0 0 291.80078 493.72656 A 7.5007506 7.5007506 0 0 0 292.1582 493.56055 A 7.5007506 7.5007506 0 0 0 292.49219 493.375 A 7.5007506 7.5007506 0 0 0 292.81055 493.18555 A 7.5007506 7.5007506 0 0 0 293.0957 492.99023 A 7.5007506 7.5007506 0 0 0 293.43555 492.73633 A 7.5007506 7.5007506 0 0 0 293.66797 492.53711 A 7.5007506 7.5007506 0 0 0 293.99414 492.24414 A 7.5007506 7.5007506 0 0 0 294.0625 492.18164 L 315.24023 471.00391 A 7.5007506 7.5007506 0 0 0 315.29688 470.94531 A 7.5007506 7.5007506 0 0 0 315.45508 470.77539 A 7.5007506 7.5007506 0 0 0 315.73047 470.45508 A 7.5007506 7.5007506 0 0 0 315.94727 470.17969 A 7.5007506 7.5007506 0 0 0 316.17773 469.84961 A 7.5007506 7.5007506 0 0 0 316.36719 469.55273 A 7.5007506 7.5007506 0 0 0 316.56055 469.20703 A 7.5007506 7.5007506 0 0 0 316.7168 468.89648 A 7.5007506 7.5007506 0 0 0 316.87891 468.52344 A 7.5007506 7.5007506 0 0 0 317.00195 468.19531 A 7.5007506 7.5007506 0 0 0 317.12109 467.83398 A 7.5007506 7.5007506 0 0 0 317.18164 467.64258 L 326.13477 434.24219 A 7.5007506 7.5007506 0 0 0 324.19336 426.99805 L 274.06641 376.87109 L 310.51562 340.42188 A 7.5007505 7.5007505 0 0 0 312.60742 336.30664 L 312.61523 336.30859 L 326.39062 250.40625 L 240.49219 264.1875 L 240.49414 264.19141 A 7.5007505 7.5007505 0 0 0 236.38086 266.28516 L 199.92969 302.73438 L 163.48047 266.28516 A 7.5007506 7.5007506 0 0 0 159.36719 264.19141 L 159.36719 264.1875 L 73.470703 250.40625 z M 91.568359 268.50391 L 148.78125 277.67773 L 142.5 301.10938 L 124.16797 319.44141 L 100.73633 325.7207 L 91.568359 268.50391 z M 308.29297 268.50391 L 299.12305 325.7207 L 275.69141 319.44141 L 257.35938 301.10938 L 251.08008 277.67773 L 308.29297 268.50391 z M 162.06055 286.08008 L 310.52148 434.53906 L 306.05469 451.21094 L 157.59375 302.75 L 162.06055 286.08008 z M 237.80078 286.08008 L 242.26758 302.75 L 221.10547 323.91016 L 210.53711 313.3418 L 237.80078 286.08008 z M 149.22656 315.59766 L 299.33008 465.70117 L 288.75977 476.27148 L 138.65625 326.16797 L 149.22656 315.59766 z M 250.63477 315.59766 L 261.20508 326.16797 L 242.28516 345.08984 L 231.71289 334.51758 L 250.63477 315.59766 z M 125.80859 334.5332 L 274.26953 482.99414 L 257.59961 487.46289 L 109.13867 339.00195 L 125.80859 334.5332 z M 274.05078 334.5332 L 290.72266 339.00195 L 263.46094 366.26562 L 252.89062 355.69531 L 274.05078 334.5332 z M 136.40234 387.47852 L 146.9707 398.04688 L 93.806641 451.21094 L 89.339844 434.53906 L 136.40234 387.47852 z M 157.57812 408.6543 L 168.14844 419.22461 L 111.10156 476.27148 L 100.5293 465.70117 L 157.57812 408.6543 z M 178.75391 429.83008 L 189.32422 440.40039 L 142.26172 487.46289 L 125.5918 482.99414 L 178.75391 429.83008 z "
       transform="scale(0.26458333)"
       id="rect5107" />
  </g>
</svg>
